# xmcd
#
# Track frame offsets: 
#        183
#        14985
#        31928
#        50780
#        69733
#        88510
#        104400
#        120270
#        140345
#        161468
#        179335
#        200490
#        218205
#        237198
#        256203
#        277790
#        299248
#
# Disc length: 4229 seconds
#
# Revision: 0
# Processed by: cddbd v1.5.1PL0 Copyright (c) Steve Scherf et al.
# Submitted via: ExactAudioCopy v0.95a5
#
DISCID=00108311
DTITLE=알 수 없는 음악가 - 최고인기가수 최고인기가요 3집
DYEAR=1900
DGENRE=
TTITLE0=꿈 (이현우)
TTITLE1=시간속의 향기 (강수지)
TTITLE2=이밤이 지나면 (임재범)
TTITLE3=사랑일뿐야 (김민우)
TTITLE4=혼자걷는 거리 (모래시계)
TTITLE5=보라빛 향기 (강수지)
TTITLE6=추억속의 그대 (황치훈)
TTITLE7=슬픔속에그댈 지워야만해 (이현우)
TTITLE8=멀어져간 사람아 (신대철과자유)
TTITLE9=그아픔까지 사랑한거야 (조정현)
TTITLE10=너의 곁에서 (임재범)
TTITLE11=입영열차 안에서 (김민우)
TTITLE12=홍도야 울지마라1991 (이현우)
TTITLE13=우울한 잿빛하늘 (황치훈)
TTITLE14=슬픈 바다 (조정현)
TTITLE15=휴식같은 친구 (김민우)
TTITLE16=새벽기차 (다섯손가락)
EXTD=
EXTT0=
EXTT1=
EXTT2=
EXTT3=
EXTT4=
EXTT5=
EXTT6=
EXTT7=
EXTT8=
EXTT9=
EXTT10=
EXTT11=
EXTT12=
EXTT13=
EXTT14=
EXTT15=
EXTT16=
PLAYORDER=
